<?xml version="1.0" encoding="UTF-8"?>
<svg id="Layer_2" data-name="Layer 2" xmlns="http://www.w3.org/2000/svg" viewBox="0 0 645.63 152.34">
  <defs>
    <style>
      .cls-1 {
        fill: #2cb6ff;
      }
    </style>
  </defs>
  <g id="Layer_1-2" data-name="Layer 1">
    <g>
      <g>
        <path class="cls-1" d="M0,7.43H13.83V55.92h29.97v11.27H0V7.43Z"/>
        <path class="cls-1" d="M95.01,47.98H60.27c1.28,5.72,6.15,9.22,13.15,9.22,4.87,0,8.37-1.45,11.53-4.44l7.09,7.68c-4.27,4.87-10.67,7.43-18.95,7.43-15.88,0-26.21-9.99-26.21-23.65s10.5-23.65,24.5-23.65,23.9,9.05,23.9,23.82c0,1.02-.17,2.48-.26,3.58Zm-34.92-7.77h22.62c-.94-5.81-5.29-9.56-11.27-9.56s-10.42,3.67-11.35,9.56Z"/>
        <path class="cls-1" d="M148.88,21.26l-19.38,45.93h-13.74l-19.29-45.93h13.74l12.72,31.25,13.15-31.25h12.81Z"/>
        <path class="cls-1" d="M152.72,7.43c0-4.18,3.33-7.43,8.28-7.43s8.28,3.07,8.28,7.17c0,4.44-3.33,7.68-8.28,7.68s-8.28-3.24-8.28-7.43Zm1.62,13.83h13.32v45.93h-13.32V21.26Z"/>
        <path class="cls-1" d="M259.94,50.88c0,10.33-8.2,16.31-23.9,16.31h-30.9V7.43h29.2c14.94,0,22.62,6.23,22.62,15.54,0,5.98-3.07,10.59-7.94,13.15,6.66,2.13,10.93,7.26,10.93,14.77Zm-41.06-33.04v14.09h13.75c6.74,0,10.41-2.39,10.41-7.09s-3.67-7-10.41-7h-13.75Zm27.15,31.59c0-5.04-3.84-7.43-11.01-7.43h-16.14v14.77h16.14c7.17,0,11.01-2.22,11.01-7.34Z"/>
        <path class="cls-1" d="M298.01,20.57v12.29c-1.11-.09-1.96-.17-2.99-.17-7.34,0-12.21,4.01-12.21,12.81v21.69h-13.32V21.26h12.72v6.06c3.24-4.44,8.71-6.74,15.79-6.74Z"/>
        <path class="cls-1" d="M302.11,44.22c0-13.83,10.67-23.65,25.27-23.65s25.18,9.82,25.18,23.65-10.59,23.65-25.18,23.65-25.27-9.82-25.27-23.65Zm36.97,0c0-7.94-5.04-12.72-11.7-12.72s-11.78,4.78-11.78,12.72,5.12,12.72,11.78,12.72,11.7-4.78,11.7-12.72Z"/>
        <path class="cls-1" d="M406.18,47.98h-34.75c1.28,5.72,6.15,9.22,13.15,9.22,4.87,0,8.37-1.45,11.53-4.44l7.09,7.68c-4.27,4.87-10.67,7.43-18.95,7.43-15.88,0-26.21-9.99-26.21-23.65s10.5-23.65,24.5-23.65,23.9,9.05,23.9,23.82c0,1.02-.17,2.48-.26,3.58Zm-34.92-7.77h22.62c-.94-5.81-5.29-9.56-11.27-9.56s-10.42,3.67-11.35,9.56Z"/>
        <path class="cls-1" d="M435.03,49.17l-6.4,6.32v11.7h-13.32V3.84h13.32V39.7l19.46-18.44h15.88l-19.12,19.46,20.83,26.47h-16.14l-14.51-18.01Z"/>
        <path class="cls-1" d="M465.67,62.92l4.44-9.56c4.1,2.65,10.33,4.44,15.96,4.44,6.15,0,8.45-1.62,8.45-4.18,0-7.51-27.75,.17-27.75-18.19,0-8.71,7.85-14.85,21.26-14.85,6.32,0,13.32,1.45,17.67,4.01l-4.44,9.48c-4.53-2.56-9.05-3.41-13.23-3.41-5.98,0-8.54,1.88-8.54,4.27,0,7.85,27.75,.26,27.75,18.36,0,8.54-7.94,14.6-21.68,14.6-7.77,0-15.62-2.13-19.89-4.95Z"/>
        <path class="cls-1" d="M593.04,40.89v26.3h-13.32v-24.25c0-7.43-3.33-10.84-8.71-10.84-5.98,0-10.16,3.84-10.16,12.04v23.05h-13.32v-24.25c0-7.43-3.16-10.84-8.71-10.84-5.89,0-10.07,3.84-10.07,12.04v23.05h-13.32V21.26h12.72v5.29c3.41-3.93,8.54-5.98,14.43-5.98,6.4,0,11.87,2.48,15.11,7.51,3.67-4.7,9.65-7.51,16.56-7.51,10.93,0,18.78,6.32,18.78,20.32Z"/>
        <path class="cls-1" d="M645.63,40.98v26.21h-12.46v-5.72c-2.48,4.18-7.26,6.4-14,6.4-10.76,0-17.16-5.98-17.16-13.92s5.72-13.75,19.72-13.75h10.59c0-5.72-3.41-9.05-10.59-9.05-4.87,0-9.9,1.62-13.23,4.27l-4.78-9.31c5.04-3.58,12.46-5.55,19.81-5.55,14,0,22.11,6.49,22.11,20.4Zm-13.32,11.69v-4.7h-9.13c-6.23,0-8.2,2.31-8.2,5.38,0,3.33,2.82,5.55,7.51,5.55,4.44,0,8.28-2.05,9.82-6.23Z"/>
      </g>
      <rect class="cls-1" x="52.2" y="92.59" width="541.22" height="3.41"/>
      <g>
        <path class="cls-1" d="M107.86,119.07h10.91c8.32,0,13.97,5.25,13.97,12.94s-5.66,12.94-13.97,12.94h-10.91v-25.88Zm10.68,22.66c6.4,0,10.5-3.92,10.5-9.72s-4.1-9.72-10.5-9.72h-6.99v19.45h6.99Z"/>
        <path class="cls-1" d="M155.51,136.34h-15.9c.44,3.44,3.22,5.73,7.1,5.73,2.29,0,4.21-.78,5.66-2.37l1.96,2.29c-1.77,2.07-4.47,3.18-7.73,3.18-6.32,0-10.54-4.18-10.54-10.02s4.18-9.98,9.83-9.98,9.69,4.07,9.69,10.09c0,.3-.04,.74-.07,1.07Zm-15.9-2.55h12.57c-.37-3.29-2.85-5.62-6.28-5.62s-5.91,2.29-6.28,5.62Z"/>
        <path class="cls-1" d="M158.02,142.88l1.48-2.81c1.66,1.18,4.33,2.03,6.88,2.03,3.29,0,4.66-1,4.66-2.66,0-4.4-12.38-.59-12.38-8.39,0-3.51,3.14-5.88,8.17-5.88,2.55,0,5.43,.67,7.14,1.77l-1.52,2.81c-1.77-1.15-3.73-1.55-5.66-1.55-3.11,0-4.62,1.15-4.62,2.7,0,4.62,12.42,.85,12.42,8.47,0,3.55-3.25,5.8-8.47,5.8-3.25,0-6.47-1-8.1-2.29Z"/>
        <path class="cls-1" d="M178.39,119.29c0-1.29,1.03-2.33,2.4-2.33s2.4,1,2.4,2.26c0,1.33-1,2.37-2.4,2.37s-2.4-1-2.4-2.29Zm.63,6.06h3.55v19.59h-3.55v-19.59Z"/>
        <path class="cls-1" d="M208.07,125.36v16.93c0,6.91-3.51,10.06-10.17,10.06-3.59,0-7.21-1-9.35-2.92l1.7-2.74c1.81,1.55,4.66,2.55,7.54,2.55,4.62,0,6.73-2.14,6.73-6.58v-1.55c-1.7,2.03-4.25,3.03-7.06,3.03-5.66,0-9.94-3.85-9.94-9.5s4.29-9.46,9.94-9.46c2.92,0,5.58,1.07,7.25,3.22v-3.03h3.36Zm-3.47,9.28c0-3.81-2.81-6.36-6.73-6.36s-6.77,2.55-6.77,6.36,2.81,6.4,6.77,6.4,6.73-2.62,6.73-6.4Z"/>
        <path class="cls-1" d="M233.43,133.67v11.28h-3.55v-10.87c0-3.84-1.92-5.73-5.29-5.73-3.77,0-6.21,2.25-6.21,6.51v10.09h-3.55v-19.59h3.4v2.96c1.44-2,3.96-3.14,7.06-3.14,4.77,0,8.13,2.74,8.13,8.5Z"/>
        <path class="cls-1" d="M269.4,145.36l-3.44-3.44c-2.26,2.18-5.21,3.33-8.65,3.33-5.25,0-9.06-2.77-9.06-6.73,0-3.18,1.81-5.4,6.28-7.95-2.33-2.33-3.11-3.99-3.11-5.92,0-3.47,2.74-5.8,6.99-5.8,3.92,0,6.43,2.03,6.43,5.4,0,2.63-1.55,4.51-5.51,6.77l6.4,6.36c.7-1.33,1.26-2.88,1.59-4.69l2.85,.92c-.44,2.29-1.22,4.29-2.26,5.91l3.48,3.47-2,2.37Zm-5.55-5.51l-7.36-7.32c-3.62,2.03-4.77,3.55-4.77,5.62,0,2.48,2.33,4.14,5.8,4.14,2.48,0,4.66-.81,6.32-2.44Zm-9.13-15.27c0,1.33,.52,2.29,2.62,4.44,3.4-1.92,4.51-3.11,4.51-4.73s-1.22-2.85-3.44-2.85c-2.33,0-3.7,1.29-3.7,3.14Z"/>
        <path class="cls-1" d="M285.77,119.07h10.91c8.32,0,13.97,5.25,13.97,12.94s-5.66,12.94-13.97,12.94h-10.91v-25.88Zm10.68,22.66c6.4,0,10.5-3.92,10.5-9.72s-4.1-9.72-10.5-9.72h-6.99v19.45h6.99Z"/>
        <path class="cls-1" d="M333.42,136.34h-15.9c.44,3.44,3.22,5.73,7.1,5.73,2.29,0,4.21-.78,5.66-2.37l1.96,2.29c-1.77,2.07-4.47,3.18-7.73,3.18-6.32,0-10.54-4.18-10.54-10.02s4.18-9.98,9.83-9.98,9.69,4.07,9.69,10.09c0,.3-.04,.74-.07,1.07Zm-15.9-2.55h12.57c-.37-3.29-2.85-5.62-6.28-5.62s-5.91,2.29-6.28,5.62Z"/>
        <path class="cls-1" d="M355.38,125.36l-8.58,19.59h-3.62l-8.58-19.59h3.7l6.73,15.71,6.88-15.71h3.48Z"/>
        <path class="cls-1" d="M375.79,136.34h-15.9c.44,3.44,3.22,5.73,7.1,5.73,2.29,0,4.21-.78,5.66-2.37l1.96,2.29c-1.77,2.07-4.47,3.18-7.73,3.18-6.32,0-10.54-4.18-10.54-10.02s4.18-9.98,9.83-9.98,9.69,4.07,9.69,10.09c0,.3-.04,.74-.07,1.07Zm-15.9-2.55h12.57c-.37-3.29-2.85-5.62-6.28-5.62s-5.91,2.29-6.28,5.62Z"/>
        <path class="cls-1" d="M380.77,117.52h3.55v27.43h-3.55v-27.43Z"/>
        <path class="cls-1" d="M389.28,135.15c0-5.84,4.33-9.98,10.2-9.98s10.17,4.14,10.17,9.98-4.29,10.02-10.17,10.02-10.2-4.18-10.2-10.02Zm16.78,0c0-4.18-2.81-6.88-6.58-6.88s-6.62,2.7-6.62,6.88,2.85,6.91,6.62,6.91,6.58-2.74,6.58-6.91Z"/>
        <path class="cls-1" d="M434.86,135.15c0,6.03-4.18,10.02-9.91,10.02-2.77,0-5.21-1.07-6.84-3.18v10.13h-3.55v-26.76h3.4v3.11c1.59-2.18,4.1-3.29,6.99-3.29,5.73,0,9.91,3.99,9.91,9.98Zm-3.59,0c0-4.14-2.85-6.88-6.62-6.88s-6.58,2.74-6.58,6.88,2.85,6.91,6.58,6.91,6.62-2.74,6.62-6.91Z"/>
        <path class="cls-1" d="M472.3,133.67v11.28h-3.55v-10.87c0-3.84-1.85-5.73-5.06-5.73-3.55,0-5.88,2.25-5.88,6.51v10.09h-3.55v-10.87c0-3.84-1.85-5.73-5.06-5.73-3.55,0-5.88,2.25-5.88,6.51v10.09h-3.55v-19.59h3.4v2.92c1.4-2,3.81-3.11,6.77-3.11s5.51,1.18,6.8,3.62c1.48-2.22,4.21-3.62,7.54-3.62,4.77,0,8.02,2.74,8.02,8.5Z"/>
        <path class="cls-1" d="M496.59,136.34h-15.9c.44,3.44,3.22,5.73,7.1,5.73,2.29,0,4.21-.78,5.66-2.37l1.96,2.29c-1.77,2.07-4.47,3.18-7.73,3.18-6.32,0-10.54-4.18-10.54-10.02s4.18-9.98,9.83-9.98,9.69,4.07,9.69,10.09c0,.3-.04,.74-.07,1.07Zm-15.9-2.55h12.57c-.37-3.29-2.85-5.62-6.28-5.62s-5.92,2.29-6.28,5.62Z"/>
        <path class="cls-1" d="M520.17,133.67v11.28h-3.55v-10.87c0-3.84-1.92-5.73-5.29-5.73-3.77,0-6.21,2.25-6.21,6.51v10.09h-3.55v-19.59h3.4v2.96c1.44-2,3.96-3.14,7.06-3.14,4.77,0,8.13,2.74,8.13,8.5Z"/>
        <path class="cls-1" d="M537.77,143.8c-1.07,.92-2.7,1.37-4.29,1.37-3.96,0-6.21-2.18-6.21-6.14v-10.76h-3.33v-2.92h3.33v-4.29h3.55v4.29h5.62v2.92h-5.62v10.61c0,2.11,1.11,3.29,3.07,3.29,1.03,0,2.03-.33,2.77-.92l1.11,2.55Z"/>
      </g>
    </g>
  </g>
</svg>